<?xml version="1.0" encoding="UTF-8" standalone="no"?>
<!-- Created with Inkscape (http://www.inkscape.org/) -->

<svg
   width="31.696255mm"
   height="3.3341711mm"
   viewBox="0 0 31.696255 3.334171"
   version="1.1"
   id="svg1"
   xml:space="preserve"
   inkscape:version="1.3.2 (091e20e, 2023-11-25)"
   sodipodi:docname="church-of-interbeing.svg"
   xmlns:inkscape="http://www.inkscape.org/namespaces/inkscape"
   xmlns:sodipodi="http://sodipodi.sourceforge.net/DTD/sodipodi-0.dtd"
   xmlns="http://www.w3.org/2000/svg"
   xmlns:svg="http://www.w3.org/2000/svg"><sodipodi:namedview
     id="namedview1"
     pagecolor="#ffffff"
     bordercolor="#000000"
     borderopacity="0.25"
     inkscape:showpageshadow="2"
     inkscape:pageopacity="0.0"
     inkscape:pagecheckerboard="0"
     inkscape:deskcolor="#d1d1d1"
     inkscape:document-units="mm"
     inkscape:zoom="3.2390434"
     inkscape:cx="82.586113"
     inkscape:cy="4.1678973"
     inkscape:window-width="1440"
     inkscape:window-height="768"
     inkscape:window-x="0"
     inkscape:window-y="25"
     inkscape:window-maximized="1"
     inkscape:current-layer="layer1" /><defs
     id="defs1" /><g
     inkscape:label="Ebene 1"
     inkscape:groupmode="layer"
     id="layer1"
     transform="translate(-1.1439523,-25.378541)"><path
       id="path28"
       d="m 1.5284243,27.916886 c -0.111621,0 -0.204122,-0.02946 -0.276985,-0.08888 -0.07183,-0.05891 -0.107487,-0.147278 -0.107487,-0.264584 0,-0.144694 0.09405,-0.2651 0.283187,-0.361735 0.08113,-0.04134 0.162264,-0.07338 0.243912,-0.09715 0.08113,-0.02481 0.162264,-0.05271 0.243913,-0.08475 0.0217,-0.0067 0.03307,-0.0248 0.03307,-0.05374 v -0.270785 c 0,-0.077 -0.02429,-0.136942 -0.07235,-0.179834 -0.04858,-0.04237 -0.106453,-0.06408 -0.173633,-0.06408 -0.07338,0 -0.133842,0.02481 -0.181901,0.07441 -0.04858,0.04961 -0.07235,0.114722 -0.07235,0.194304 0,0.08423 -0.04909,0.12609 -0.146761,0.12609 -0.07028,0 -0.117822,-0.02274 -0.142627,-0.06821 0,-0.05064 0.02119,-0.103353 0.06408,-0.157097 0.04237,-0.05478 0.09767,-0.10542 0.165364,-0.150895 0.06718,-0.04547 0.141077,-0.08268 0.221176,-0.111621 0.08113,-0.02894 0.161747,-0.04341 0.241845,-0.04341 0.132292,0 0.227377,0.03256 0.285254,0.09715 0.05788,0.06356 0.08682,0.166398 0.08682,0.307992 v 0.835091 c 0,0.05116 0.01292,0.09405 0.03927,0.128158 0.02584,0.03307 0.06253,0.04961 0.109554,0.04961 0.02997,0 0.07235,-0.01705 0.12609,-0.05168 0.0093,0 0.01447,0.0098 0.01447,0.02894 0,0.03204 -0.0062,0.05736 -0.0186,0.07648 -0.09922,0.08578 -0.183451,0.128157 -0.252181,0.128157 -0.05684,0 -0.110587,-0.02274 -0.16123,-0.06821 -0.04961,-0.04651 -0.08423,-0.0956 -0.103353,-0.146761 -0.0124,0.0098 -0.02791,0.02274 -0.04547,0.03927 -0.01809,0.0155 -0.03307,0.02791 -0.04548,0.03721 -0.05116,0.03876 -0.106453,0.07183 -0.165364,0.09922 -0.05788,0.02739 -0.121957,0.04134 -0.192237,0.04134 z m 0.136426,-0.206706 c 0.06718,0 0.131258,-0.01912 0.192236,-0.05788 0.06046,-0.03824 0.09095,-0.07906 0.09095,-0.121957 v -0.37207 c -0.06356,0.02377 -0.123507,0.04496 -0.179834,0.06408 -0.05684,0.01964 -0.101286,0.03514 -0.134359,0.04754 -0.04444,0.01654 -0.0863,0.04703 -0.12609,0.09095 -0.04031,0.04289 -0.05994,0.09198 -0.05994,0.146761 0,0.07338 0.0217,0.125574 0.06615,0.157096 0.04547,0.03049 0.0956,0.04547 0.150895,0.04547 z m 2.561084,0.204639 c -0.132292,0 -0.254248,-0.03514 -0.365869,-0.10542 -0.110588,-0.07028 -0.198438,-0.163814 -0.264583,-0.28112 -0.06615,-0.116788 -0.09922,-0.248047 -0.09922,-0.392741 0,-0.148828 0.02687,-0.285253 0.08061,-0.409277 0.05478,-0.125057 0.134876,-0.225309 0.239779,-0.299723 0.104386,-0.07441 0.23151,-0.111621 0.380338,-0.111621 0.265617,0 0.449069,0.06149 0.549837,0.183968 0,0.16123 -0.04444,0.241845 -0.132291,0.241845 -0.04134,0 -0.07338,-0.0088 -0.09508,-0.02687 -0.02222,-0.01757 -0.04961,-0.05064 -0.08268,-0.09922 -0.07441,-0.110071 -0.164331,-0.165365 -0.268718,-0.165365 -0.09819,0 -0.187585,0.04703 -0.268717,0.14056 -0.08165,0.09405 -0.121956,0.233578 -0.121956,0.419613 0,0.19327 0.04754,0.353467 0.142627,0.481624 0.09612,0.127124 0.22841,0.19017 0.396875,0.19017 0.101802,0 0.186552,-0.01447 0.254248,-0.04341 0.06873,-0.02997 0.118855,-0.05788 0.150895,-0.08268 l 0.0248,-0.0186 c 0.01499,0 0.02274,0.01602 0.02274,0.04754 0,0.01654 -0.0078,0.03876 -0.02274,0.06615 -0.04857,0.0677 -0.119372,0.129191 -0.212906,0.183968 -0.09405,0.05374 -0.196371,0.08062 -0.307992,0.08062 z m 0.681612,-0.0124 c -0.0098,-0.0098 -0.01447,-0.02997 -0.01447,-0.06201 0,-0.02894 0.0047,-0.04341 0.01447,-0.04341 0.01912,0 0.04547,-0.0031 0.07855,-0.01034 0.03411,-0.0067 0.06615,-0.01654 0.09509,-0.02894 0.02894,-0.0124 0.04392,-0.02325 0.04547,-0.03307 0.01757,-0.0646 0.02687,-0.147278 0.02687,-0.248047 v -1.570964 c 0,-0.08113 -0.0078,-0.15813 -0.02274,-0.23151 -0.0098,-0.03824 -0.07131,-0.05788 -0.183968,-0.05788 h -0.03307 c -0.01395,0 -0.02067,-0.01292 -0.02067,-0.03927 0,-0.03824 0.0067,-0.05788 0.02067,-0.05788 0.122474,-0.0124 0.225826,-0.03204 0.310059,-0.05995 0.08527,-0.02739 0.143661,-0.04961 0.1757,-0.06615 l 0.01654,-0.0124 h 0.0083 c 0.0093,0 0.01912,0.0072 0.02894,0.02067 0.0093,0.01395 0.0155,0.02635 0.0186,0.03721 -0.0279,0.0801 -0.04134,0.185519 -0.04134,0.31626 v 0.791683 c 0,0.0098 0.0026,0.01447 0.0083,0.01447 0.0026,0 0.0062,-0.0026 0.01034,-0.0083 0.03566,-0.03824 0.08165,-0.07648 0.138493,-0.113688 0.05788,-0.03721 0.118856,-0.06821 0.183968,-0.09302 0.0646,-0.02584 0.12609,-0.03927 0.183968,-0.03927 0.16123,0 0.276986,0.05788 0.347266,0.173633 0.07028,0.115755 0.10542,0.294556 0.10542,0.535368 v 0.390674 c 0,0.0677 0.0021,0.128158 0.0062,0.181901 0.0052,0.05271 0.01292,0.09819 0.02274,0.136426 0.0041,0.0098 0.02067,0.02067 0.04961,0.03307 0.02894,0.0124 0.05994,0.02222 0.09302,0.02894 0.03411,0.0072 0.05891,0.01034 0.07441,0.01034 0.0067,0 0.01137,0.01447 0.01447,0.04341 0.0026,0.02894 10e-4,0.04961 -0.0041,0.06201 l -0.38654,-0.0186 -0.380338,0.0186 c -0.0098,-0.0098 -0.01447,-0.02997 -0.01447,-0.06201 0,-0.02894 0.0047,-0.04341 0.01447,-0.04341 0.01912,0 0.04444,-0.0031 0.07648,-0.01034 0.03152,-0.0067 0.06046,-0.01654 0.08682,-0.02894 0.02584,-0.0124 0.04031,-0.02325 0.04341,-0.03307 0.0093,-0.03307 0.0155,-0.0708 0.0186,-0.113688 0.0041,-0.04393 0.0062,-0.08992 0.0062,-0.138493 v -0.384473 c 0,-0.148828 -0.01344,-0.263033 -0.03927,-0.343131 -0.02636,-0.08113 -0.0677,-0.13746 -0.124023,-0.169499 -0.05529,-0.03152 -0.126091,-0.04754 -0.212907,-0.04754 -0.04858,0 -0.09715,0.01395 -0.146761,0.04134 -0.04961,0.0279 -0.09198,0.05994 -0.126091,0.09715 -0.03307,0.03617 -0.04961,0.06821 -0.04961,0.09715 v 0.640788 c 0,0.06925 0.0021,0.130225 0.0062,0.183968 0.0052,0.05271 0.01292,0.09819 0.02274,0.136426 0.0052,0.0098 0.02274,0.02067 0.05168,0.03307 0.02894,0.0124 0.05994,0.02222 0.09302,0.02894 0.03411,0.0072 0.0584,0.01034 0.07235,0.01034 0.0083,0 0.01292,0.01447 0.01447,0.04341 0.0026,0.02894 0.0021,0.04961 -0.0021,0.06201 l -0.388607,-0.0186 z m 3.037024,0.0186 c -0.01964,0 -0.02894,-0.01964 -0.02894,-0.05788 v -0.183968 c 0,-0.0124 -0.0021,-0.0186 -0.0062,-0.0186 -0.160197,0.171049 -0.31781,0.256315 -0.473356,0.256315 -0.114722,0 -0.204639,-0.03307 -0.270785,-0.09922 -0.06615,-0.06614 -0.113171,-0.149861 -0.14056,-0.252181 -0.02791,-0.103352 -0.04134,-0.209806 -0.04134,-0.320394 v -0.456819 c 0,-0.09095 -0.01757,-0.155546 -0.05168,-0.194304 -0.02377,-0.02894 -0.05168,-0.04806 -0.08475,-0.05788 -0.03204,-0.0093 -0.06098,-0.01499 -0.08682,-0.01654 -0.02481,-0.001 -0.03721,-0.0047 -0.03721,-0.01034 0,-0.05788 0.0067,-0.08733 0.02067,-0.08888 0.128157,-0.01912 0.23151,-0.03617 0.310058,-0.05168 0.07855,-0.01654 0.124024,-0.02584 0.136426,-0.02894 l 0.07235,-0.0186 c 0.0093,-10e-4 0.01499,0.0093 0.01654,0.03101 0.0026,0.02067 0.0026,0.03617 0,0.04547 -0.01395,0.115755 -0.02067,0.205672 -0.02067,0.268718 v 0.487825 c 0,0.186035 0.02739,0.323495 0.08268,0.411345 0.05478,0.08682 0.145211,0.130224 0.270785,0.130224 0.04806,0 0.0956,-0.01292 0.142626,-0.03927 0.04806,-0.02584 0.08682,-0.05788 0.115756,-0.09508 0.02997,-0.03721 0.04548,-0.06925 0.04548,-0.09715 v -0.675928 c 0,-0.09095 -0.01654,-0.155546 -0.04961,-0.194303 -0.02481,-0.02894 -0.05374,-0.04806 -0.08682,-0.05788 -0.03204,-0.0093 -0.06098,-0.0155 -0.08682,-0.0186 -0.02481,-0.0026 -0.03721,-0.0052 -0.03721,-0.0083 0,-0.05788 0.0072,-0.08733 0.02274,-0.08888 0.128158,-0.01912 0.223759,-0.03514 0.287321,-0.04754 0.06305,-0.0124 0.114205,-0.02325 0.152963,-0.03307 l 0.07648,-0.0186 c 0.0093,-0.001 0.0155,0.0093 0.0186,0.03101 0.0026,0.02067 0.0026,0.03617 0,0.04547 -0.0155,0.115755 -0.02274,0.202572 -0.02274,0.26045 v 0.72347 c 0,0.109037 0.0088,0.200504 0.02687,0.274918 0.0067,0.02481 0.02532,0.04031 0.05581,0.04548 0.03152,0.0057 0.06821,0.01137 0.109554,0.01654 l 0.04754,0.0041 c 0.0067,0.0016 0.01034,0.01447 0.01034,0.03927 0,0.0072 -0.0036,0.0186 -0.01034,0.03514 -0.0057,0.0155 -0.01188,0.02274 -0.0186,0.02274 -0.07183,0.0041 -0.150895,0.01654 -0.237712,0.03721 -0.08682,0.02067 -0.152445,0.03979 -0.19637,0.05788 z m 0.677478,-0.0186 c -0.0098,-0.0098 -0.01447,-0.02997 -0.01447,-0.06201 0,-0.02894 0.0047,-0.04341 0.01447,-0.04341 0.01912,0 0.04547,-0.0031 0.07855,-0.01034 0.03411,-0.0067 0.06615,-0.01654 0.09509,-0.02894 0.02894,-0.0124 0.04444,-0.02325 0.04754,-0.03307 0.0093,-0.03307 0.0155,-0.0708 0.0186,-0.113688 0.0041,-0.04393 0.0062,-0.08992 0.0062,-0.138493 v -0.684196 c 0,-0.09095 -0.01757,-0.155546 -0.05168,-0.194304 -0.02377,-0.02894 -0.05168,-0.04806 -0.08475,-0.05788 -0.03204,-0.0093 -0.06098,-0.01499 -0.08682,-0.01654 -0.02481,-0.001 -0.03721,-0.0047 -0.03721,-0.01034 0,-0.05788 0.0067,-0.08733 0.02067,-0.08888 0.263033,-0.04134 0.415478,-0.06821 0.456819,-0.08061 l 0.06201,-0.0186 c 0.0093,-10e-4 0.01499,0.0093 0.01654,0.03101 0.0026,0.02067 0.0026,0.03617 0,0.04547 l -0.02067,0.181901 c 0.04237,-0.06615 0.101803,-0.127124 0.177767,-0.183968 0.077,-0.05633 0.152962,-0.08475 0.227376,-0.08475 0.13901,0 0.232544,0.03514 0.28112,0.10542 0,0.08423 -0.01344,0.145727 -0.03927,0.183968 -0.02635,0.03876 -0.05891,0.05788 -0.09715,0.05788 -0.04444,0 -0.08423,-0.02067 -0.119889,-0.06201 -0.03617,-0.03979 -0.08578,-0.05995 -0.148828,-0.05995 -0.04858,0 -0.09457,0.01654 -0.138493,0.04961 -0.04289,0.03204 -0.07648,0.07235 -0.101286,0.121957 -0.02481,0.04961 -0.03721,0.100769 -0.03721,0.152962 v 0.543636 c 0,0.06925 0.0021,0.130225 0.0062,0.183968 0.0052,0.05271 0.01292,0.09819 0.02274,0.136426 0.0041,0.0098 0.02067,0.02067 0.04961,0.03307 0.02894,0.0124 0.06046,0.02222 0.09508,0.02894 0.03566,0.0072 0.06046,0.01034 0.07441,0.01034 0.0083,0 0.01292,0.01447 0.01447,0.04341 0.0026,0.02894 0.0021,0.04961 -0.0021,0.06201 l -0.390674,-0.0186 z m 2.1042637,0.0124 c -0.132291,0 -0.254248,-0.03514 -0.365869,-0.10542 -0.110587,-0.07028 -0.198437,-0.163814 -0.264583,-0.28112 -0.06615,-0.116788 -0.09922,-0.248047 -0.09922,-0.392741 0,-0.148828 0.02687,-0.285253 0.08062,-0.409277 0.05478,-0.125057 0.134875,-0.225309 0.239778,-0.299723 0.104386,-0.07441 0.231511,-0.111621 0.380339,-0.111621 0.265617,0 0.449068,0.06149 0.549837,0.183968 0,0.16123 -0.04444,0.241845 -0.132292,0.241845 -0.04134,0 -0.07338,-0.0088 -0.09508,-0.02687 -0.02222,-0.01757 -0.04961,-0.05064 -0.08268,-0.09922 -0.07441,-0.110071 -0.164331,-0.165365 -0.268717,-0.165365 -0.09819,0 -0.187586,0.04703 -0.268718,0.14056 -0.08165,0.09405 -0.121956,0.233578 -0.121956,0.419613 0,0.19327 0.04754,0.353467 0.142627,0.481624 0.09612,0.127124 0.22841,0.19017 0.396875,0.19017 0.101803,0 0.186552,-0.01447 0.254248,-0.04341 0.06873,-0.02997 0.118856,-0.05788 0.150895,-0.08268 l 0.02481,-0.0186 c 0.01499,0 0.02274,0.01602 0.02274,0.04754 0,0.01654 -0.0078,0.03876 -0.02274,0.06615 -0.04858,0.0677 -0.119373,0.129191 -0.212907,0.183968 -0.09405,0.05374 -0.19637,0.08062 -0.307992,0.08062 z m 0.681613,-0.0124 c -0.0098,-0.0098 -0.01447,-0.02997 -0.01447,-0.06201 0,-0.02894 0.0047,-0.04341 0.01447,-0.04341 0.01912,0 0.04547,-0.0031 0.07855,-0.01034 0.03411,-0.0067 0.06615,-0.01654 0.09508,-0.02894 0.02894,-0.0124 0.04393,-0.02325 0.04548,-0.03307 0.01757,-0.0646 0.02687,-0.147278 0.02687,-0.248047 v -1.570964 c 0,-0.08113 -0.0078,-0.15813 -0.02274,-0.23151 -0.0098,-0.03824 -0.07131,-0.05788 -0.183968,-0.05788 h -0.03307 c -0.01395,0 -0.02067,-0.01292 -0.02067,-0.03927 0,-0.03824 0.0067,-0.05788 0.02067,-0.05788 0.122473,-0.0124 0.225826,-0.03204 0.310058,-0.05995 0.08527,-0.02739 0.143661,-0.04961 0.1757,-0.06615 l 0.01654,-0.0124 h 0.0083 c 0.0093,0 0.01912,0.0072 0.02894,0.02067 0.0093,0.01395 0.0155,0.02635 0.0186,0.03721 -0.02791,0.0801 -0.04134,0.185519 -0.04134,0.31626 v 0.791683 c 0,0.0098 0.0026,0.01447 0.0083,0.01447 0.0026,0 0.0062,-0.0026 0.01034,-0.0083 0.03566,-0.03824 0.08165,-0.07648 0.138493,-0.113688 0.05788,-0.03721 0.118856,-0.06821 0.183968,-0.09302 0.0646,-0.02584 0.126091,-0.03927 0.183968,-0.03927 0.161231,0 0.276986,0.05788 0.347266,0.173633 0.07028,0.115755 0.10542,0.294556 0.10542,0.535368 v 0.390674 c 0,0.0677 0.0021,0.128158 0.0062,0.181901 0.0052,0.05271 0.01292,0.09819 0.02274,0.136426 0.0041,0.0098 0.02067,0.02067 0.04961,0.03307 0.02894,0.0124 0.05994,0.02222 0.09302,0.02894 0.03411,0.0072 0.05891,0.01034 0.07441,0.01034 0.0067,0 0.01137,0.01447 0.01447,0.04341 0.0026,0.02894 0.001,0.04961 -0.0041,0.06201 l -0.386539,-0.0186 -0.380339,0.0186 c -0.0098,-0.0098 -0.01447,-0.02997 -0.01447,-0.06201 0,-0.02894 0.0047,-0.04341 0.01447,-0.04341 0.01912,0 0.04444,-0.0031 0.07648,-0.01034 0.03152,-0.0067 0.06046,-0.01654 0.08682,-0.02894 0.02584,-0.0124 0.04031,-0.02325 0.04341,-0.03307 0.0093,-0.03307 0.0155,-0.0708 0.0186,-0.113688 0.0041,-0.04393 0.0062,-0.08992 0.0062,-0.138493 v -0.384473 c 0,-0.148828 -0.01344,-0.263033 -0.03927,-0.343131 -0.02635,-0.08113 -0.0677,-0.13746 -0.124024,-0.169499 -0.05529,-0.03152 -0.12609,-0.04754 -0.212907,-0.04754 -0.04857,0 -0.09715,0.01395 -0.146761,0.04134 -0.04961,0.0279 -0.09198,0.05994 -0.12609,0.09715 -0.03307,0.03617 -0.04961,0.06821 -0.04961,0.09715 v 0.640788 c 0,0.06925 0.0021,0.130225 0.0062,0.183968 0.0052,0.05271 0.01292,0.09819 0.02274,0.136426 0.0052,0.0098 0.02274,0.02067 0.05168,0.03307 0.02894,0.0124 0.05994,0.02222 0.09302,0.02894 0.03411,0.0072 0.05839,0.01034 0.07235,0.01034 0.0083,0 0.01292,0.01447 0.01447,0.04341 0.0026,0.02894 0.0021,0.04961 -0.0021,0.06201 l -0.388607,-0.0186 z m 3.590995,0.01447 c -0.144694,0 -0.278019,-0.03566 -0.398943,-0.107487 -0.119889,-0.07286 -0.216007,-0.170532 -0.28732,-0.293522 -0.07028,-0.122473 -0.10542,-0.257349 -0.10542,-0.405143 0,-0.149862 0.03411,-0.285254 0.103352,-0.405144 0.06873,-0.120922 0.161748,-0.217041 0.279054,-0.28732 0.118338,-0.07131 0.252698,-0.107487 0.403075,-0.107487 0.144694,0 0.275953,0.03669 0.394809,0.109554 0.119889,0.07183 0.214974,0.168465 0.285254,0.289388 0.07131,0.119889 0.107487,0.253731 0.107487,0.401009 0,0.147794 -0.03514,0.28267 -0.105421,0.405143 -0.06924,0.12299 -0.162264,0.220658 -0.279052,0.293522 -0.117306,0.07183 -0.249597,0.107487 -0.396875,0.107487 z m 0.03307,-0.14056 c 0.08682,0 0.162264,-0.02739 0.227376,-0.08268 0.0646,-0.05633 0.115755,-0.131258 0.152962,-0.225309 0.03824,-0.09353 0.05788,-0.196371 0.05788,-0.307992 0,-0.129191 -0.02429,-0.248047 -0.07235,-0.355534 -0.04858,-0.107487 -0.111621,-0.192753 -0.190169,-0.256315 -0.07855,-0.0646 -0.16433,-0.09715 -0.256315,-0.09715 -0.08423,0 -0.159163,0.02791 -0.225309,0.08268 -0.06615,0.05374 -0.117823,0.12609 -0.15503,0.217041 -0.03617,0.08992 -0.05374,0.191719 -0.05374,0.305924 0,0.129708 0.02326,0.249597 0.07028,0.359668 0.04806,0.109038 0.110588,0.196371 0.188103,0.262517 0.07855,0.06511 0.163814,0.09715 0.256315,0.09715 z m 0.995288,0.126091 c -0.0083,-0.0072 -0.01344,-0.02584 -0.01447,-0.05788 0,-0.03152 0.0047,-0.04754 0.01447,-0.04754 0.01912,0 0.04392,-0.0031 0.07441,-0.01034 0.03152,-0.0067 0.06098,-0.01654 0.08888,-0.02894 0.02739,-0.0124 0.04237,-0.02325 0.04547,-0.03307 0.0124,-0.04806 0.02119,-0.09819 0.02687,-0.150895 0.0067,-0.05374 0.01033,-0.110071 0.01033,-0.169499 v -0.833024 c 0,-0.01654 -0.0062,-0.0248 -0.0186,-0.0248 h -0.192237 c -0.0072,0 -0.01033,-0.0072 -0.01033,-0.02274 0,-0.02067 0.0186,-0.05013 0.05581,-0.08888 0.03721,-0.03824 0.07855,-0.05788 0.124023,-0.05788 h 0.02274 c 0.0124,0 0.0186,-0.0072 0.0186,-0.02274 v -0.04754 c 0,-0.126607 0.01964,-0.244946 0.05995,-0.355533 0.04134,-0.111622 0.09612,-0.21084 0.165364,-0.297657 0.06873,-0.08682 0.145727,-0.153996 0.231511,-0.202571 0.08527,-0.04806 0.172598,-0.07235 0.262515,-0.07235 0.176217,0 0.290423,0.04702 0.343132,0.14056 0,0.151928 -0.04341,0.227376 -0.130224,0.227376 -0.02635,0 -0.05064,-0.01085 -0.07235,-0.03307 -0.02222,-0.02325 -0.04496,-0.05013 -0.06821,-0.08061 -0.02222,-0.02997 -0.04858,-0.05633 -0.07855,-0.07855 -0.03049,-0.02325 -0.06563,-0.03514 -0.105421,-0.03514 -0.07028,0 -0.131258,0.03049 -0.181901,0.09095 -0.05116,0.05943 -0.08888,0.138493 -0.113687,0.237712 -0.02481,0.09922 -0.03721,0.208256 -0.03721,0.326595 v 0.183968 c 0,0.0124 0.0052,0.0186 0.01654,0.0186 h 0.403076 c 0.01085,0 0.01654,0.0083 0.01654,0.02481 0,0.03876 -0.01447,0.08682 -0.04341,0.144694 h -0.37207 c -0.01395,0 -0.02067,0.0072 -0.02067,0.02067 v 0.837158 c 0,0.129708 0.01033,0.236678 0.031,0.320394 0.0052,0.0098 0.02119,0.02067 0.04754,0.03307 0.02584,0.0124 0.05478,0.02222 0.08682,0.02894 0.03152,0.0072 0.05426,0.01034 0.06821,0.01034 0.0083,0 0.01292,0.01447 0.01447,0.04341 0.0026,0.02894 0.0021,0.04961 -0.0021,0.06201 l -0.388607,-0.0186 z m 1.937867,0 c -0.0098,-0.0098 -0.01447,-0.02997 -0.01447,-0.06201 0,-0.02894 0.0047,-0.04341 0.01447,-0.04341 0.01912,0 0.04548,-0.0031 0.07855,-0.01034 0.03411,-0.0067 0.06615,-0.01654 0.09508,-0.02894 0.02894,-0.0124 0.04444,-0.02325 0.04754,-0.03307 0.0093,-0.03307 0.0155,-0.0708 0.0186,-0.113688 0.0041,-0.04393 0.0062,-0.08992 0.0062,-0.138493 v -0.684196 c 0,-0.09095 -0.01757,-0.155546 -0.05168,-0.194304 -0.02377,-0.03152 -0.05271,-0.05168 -0.08682,-0.05994 -0.03307,-0.0083 -0.06201,-0.01292 -0.08682,-0.01447 -0.02377,-0.001 -0.03514,-0.0047 -0.03514,-0.01034 0,-0.05788 0.0067,-0.08733 0.02067,-0.08888 0.128158,-0.01912 0.225826,-0.03566 0.293522,-0.04961 0.06718,-0.01344 0.128158,-0.02584 0.181901,-0.03721 l 0.04341,-0.0124 c 0.0093,-0.001 0.01499,0.0093 0.01654,0.03101 0.0026,0.02067 0.0026,0.03617 0,0.04547 -0.0041,0.04858 -0.0083,0.09457 -0.0124,0.138493 -0.0031,0.04289 -0.0041,0.08372 -0.0041,0.121957 v 0.746207 c 0,0.06925 0.0021,0.130225 0.0062,0.183968 0.0052,0.05271 0.01292,0.09819 0.02274,0.136426 0.0041,0.0098 0.02067,0.02067 0.04961,0.03307 0.02894,0.0124 0.05994,0.02222 0.09302,0.02894 0.03411,0.0072 0.05891,0.01034 0.07442,0.01034 0.0067,0 0.01085,0.01447 0.01239,0.04341 0.0026,0.02894 0.0021,0.04961 -0.0021,0.06201 l -0.38654,-0.0186 z m 0.3576,-1.97404 c -0.04858,0 -0.09043,-0.01757 -0.12609,-0.05374 -0.03617,-0.03721 -0.05374,-0.07958 -0.05374,-0.128157 0,-0.05064 0.01757,-0.09353 0.05374,-0.128158 0.03566,-0.03411 0.07751,-0.05168 0.12609,-0.05168 0.05064,0 0.09353,0.01757 0.128157,0.05168 0.03566,0.03462 0.05374,0.07752 0.05374,0.128158 0,0.04858 -0.01809,0.09095 -0.05374,0.128157 -0.03462,0.03617 -0.07752,0.05374 -0.128157,0.05374 z m 0.652157,1.97404 c -0.0098,-0.0098 -0.01447,-0.02997 -0.01447,-0.06201 0,-0.02894 0.0047,-0.04341 0.01447,-0.04341 0.01912,0 0.04547,-0.0031 0.07855,-0.01034 0.03411,-0.0067 0.06615,-0.01654 0.09509,-0.02894 0.02894,-0.0124 0.04444,-0.02325 0.04754,-0.03307 0.0093,-0.03307 0.0155,-0.0708 0.0186,-0.113688 0.0041,-0.04393 0.0062,-0.08992 0.0062,-0.138493 v -0.684196 c 0,-0.09095 -0.01757,-0.155546 -0.05168,-0.194304 -0.02377,-0.02894 -0.05168,-0.04806 -0.08475,-0.05788 -0.03204,-0.0093 -0.06098,-0.01499 -0.08682,-0.01654 -0.02481,-0.001 -0.03721,-0.0047 -0.03721,-0.01034 0,-0.05788 0.0067,-0.08733 0.02067,-0.08888 0.128158,-0.01912 0.232028,-0.03617 0.312127,-0.05168 0.07958,-0.01654 0.12919,-0.02739 0.148828,-0.03307 l 0.05788,-0.01447 c 0.0093,-0.001 0.01499,0.0093 0.01654,0.03101 0.0026,0.02067 0.0026,0.03617 0,0.04547 -0.0041,0.03462 -0.0078,0.06408 -0.01033,0.08888 -0.0031,0.02377 -0.0041,0.04237 -0.0041,0.05581 0,0.0098 0.0026,0.01447 0.0083,0.01447 0.0026,0 0.0062,-0.0021 0.01033,-0.0062 0.05478,-0.05788 0.130224,-0.112654 0.225309,-0.165364 0.09612,-0.05219 0.188103,-0.07855 0.274919,-0.07855 0.167949,0 0.28577,0.06098 0.353466,0.181901 0.06718,0.11989 0.101287,0.315227 0.101287,0.584978 v 0.330729 c 0,0.06925 0.0021,0.130225 0.0062,0.183968 0.0052,0.05271 0.01292,0.09819 0.02274,0.136426 0.0052,0.0098 0.02274,0.02067 0.05167,0.03307 0.02894,0.0124 0.05995,0.02222 0.09302,0.02894 0.03411,0.0072 0.05839,0.01034 0.07235,0.01034 0.0067,0 0.01136,0.01447 0.01447,0.04341 0.0026,0.02894 0.0011,0.04961 -0.0041,0.06201 l -0.386541,-0.0186 -0.380338,0.0186 c -0.0098,-0.0098 -0.01447,-0.02997 -0.01447,-0.06201 0,-0.02894 0.0047,-0.04341 0.01447,-0.04341 0.01912,0 0.04444,-0.0031 0.07648,-0.01034 0.03152,-0.0067 0.06046,-0.01654 0.08682,-0.02894 0.02584,-0.0124 0.04031,-0.02325 0.04341,-0.03307 0.0093,-0.03307 0.0155,-0.0708 0.0186,-0.113688 0.0041,-0.04393 0.0062,-0.08992 0.0062,-0.138493 v -0.361735 c 0,-0.224276 -0.02894,-0.377238 -0.08682,-0.458887 -0.05788,-0.08268 -0.151928,-0.124023 -0.28112,-0.124023 -0.05116,0 -0.102318,0.01395 -0.152962,0.04134 -0.04961,0.0279 -0.09198,0.05994 -0.12609,0.09715 -0.03307,0.03617 -0.04961,0.06976 -0.04961,0.101286 v 0.636654 c 0,0.06925 0.0021,0.130225 0.0062,0.183968 0.0052,0.05271 0.01292,0.09819 0.02274,0.136426 0.0041,0.0098 0.02067,0.02067 0.04961,0.03307 0.02894,0.0124 0.05994,0.02222 0.09302,0.02894 0.03411,0.0072 0.05891,0.01034 0.07442,0.01034 0.0067,0 0.01085,0.01447 0.01239,0.04341 0.0026,0.02894 0.0021,0.04961 -0.0021,0.06201 l -0.386541,-0.0186 z m 2.557466,0.01447 c -0.12144,0 -0.222725,-0.03927 -0.303857,-0.117822 -0.0801,-0.07958 -0.119889,-0.19327 -0.119889,-0.341065 v -0.91984 h -0.208773 c -0.0124,0 -0.0186,-0.02481 -0.0186,-0.07441 0,-0.01499 0.0011,-0.02377 0.0041,-0.02687 0.07131,-0.03307 0.147278,-0.09612 0.227377,-0.190169 0.05478,-0.06615 0.09612,-0.12299 0.124023,-0.171566 0.02739,-0.04806 0.04134,-0.077 0.04134,-0.08682 0.07286,0 0.109553,0.0062 0.109553,0.0186 v 0.357601 l 0.285254,0.0041 h 0.202572 c 0.01912,0 0.02894,0.01137 0.02894,0.03307 0,0.04547 -0.01188,0.09095 -0.03514,0.136426 h -0.481625 v 0.886767 c 0,0.09663 0.02481,0.173633 0.07441,0.231511 0.04961,0.05788 0.113688,0.08682 0.192237,0.08682 0.07545,0 0.150894,-0.02274 0.225308,-0.06821 0.0067,-0.0052 0.01705,0.0052 0.03101,0.03101 0.01499,0.02481 0.02119,0.03876 0.0186,0.04134 -0.03617,0.03876 -0.09095,0.07648 -0.165364,0.113689 -0.07441,0.03721 -0.151929,0.05581 -0.231511,0.05581 z m 1.286743,-0.0021 c -0.132292,0 -0.254247,-0.03514 -0.365869,-0.10542 -0.110587,-0.07028 -0.198437,-0.163814 -0.264583,-0.28112 -0.06615,-0.116788 -0.09922,-0.248047 -0.09922,-0.392741 0,-0.167948 0.03101,-0.313159 0.09302,-0.436149 0.06305,-0.124023 0.148828,-0.219108 0.256315,-0.285254 0.108522,-0.06615 0.230478,-0.09922 0.36587,-0.09922 0.111621,0 0.20929,0.0217 0.293522,0.06408 0.08372,0.04134 0.149344,0.09457 0.19637,0.159164 0.04238,0.0677 0.07441,0.135909 0.09508,0.204639 0.02067,0.06925 0.03101,0.137459 0.03101,0.204638 0,0.04858 -0.0078,0.07803 -0.02274,0.08888 -0.01395,0.01137 -0.04134,0.01654 -0.08268,0.01654 h -0.911572 c -0.01964,0 -0.02894,0.0062 -0.02894,0.0186 0,0.100769 0.02067,0.19792 0.06201,0.291455 0.04134,0.0925 0.101285,0.168982 0.179833,0.229443 0.07958,0.05943 0.177767,0.08888 0.293522,0.08888 0.101803,0 0.186553,-0.01447 0.254249,-0.04341 0.06873,-0.02997 0.118856,-0.05788 0.150895,-0.08268 l 0.0248,-0.0186 c 0.01499,0 0.02274,0.01602 0.02274,0.04754 0,0.01654 -0.0078,0.03876 -0.02274,0.06615 -0.04857,0.0677 -0.119372,0.129191 -0.212906,0.183968 -0.09405,0.05374 -0.196371,0.08062 -0.307992,0.08062 z m -0.415478,-1.014925 h 0.704866 c 0.0124,0 0.0186,-0.01137 0.0186,-0.03514 0,-0.05374 -0.01395,-0.112138 -0.04134,-0.1757 -0.02791,-0.06304 -0.06976,-0.118856 -0.126091,-0.167432 -0.05529,-0.04806 -0.125057,-0.07235 -0.208772,-0.07235 -0.07751,0 -0.143661,0.02635 -0.198438,0.07855 -0.05529,0.05116 -0.09715,0.109554 -0.126091,0.175699 -0.02894,0.06615 -0.04341,0.123507 -0.04341,0.171566 0,0.01654 0.0067,0.02481 0.02067,0.02481 z m 1.241268,1.002523 c -0.0098,-0.0098 -0.01447,-0.02997 -0.01447,-0.06201 0,-0.02894 0.0046,-0.04341 0.01447,-0.04341 0.01912,0 0.04548,-0.0031 0.07855,-0.01034 0.03411,-0.0067 0.06615,-0.01654 0.09508,-0.02894 0.02894,-0.0124 0.04444,-0.02325 0.04754,-0.03307 0.0093,-0.03307 0.0155,-0.0708 0.0186,-0.113688 0.0041,-0.04393 0.0062,-0.08992 0.0062,-0.138493 v -0.684196 c 0,-0.09095 -0.01757,-0.155546 -0.05168,-0.194304 -0.02377,-0.02894 -0.05168,-0.04806 -0.08475,-0.05788 -0.03204,-0.0093 -0.06098,-0.01499 -0.08682,-0.01654 -0.0248,-0.001 -0.03721,-0.0047 -0.03721,-0.01034 0,-0.05788 0.0067,-0.08733 0.02067,-0.08888 0.263033,-0.04134 0.415478,-0.06821 0.456819,-0.08061 l 0.06201,-0.0186 c 0.0093,-10e-4 0.01499,0.0093 0.01654,0.03101 0.0026,0.02067 0.0026,0.03617 0,0.04547 l -0.02067,0.181901 c 0.04237,-0.06615 0.101802,-0.127124 0.177767,-0.183968 0.077,-0.05633 0.152962,-0.08475 0.227376,-0.08475 0.139009,0 0.232543,0.03514 0.28112,0.10542 0,0.08423 -0.01344,0.145727 -0.03927,0.183968 -0.02636,0.03876 -0.05891,0.05788 -0.09715,0.05788 -0.04444,0 -0.08423,-0.02067 -0.119889,-0.06201 -0.03617,-0.03979 -0.08578,-0.05995 -0.148829,-0.05995 -0.04858,0 -0.09457,0.01654 -0.138492,0.04961 -0.04289,0.03204 -0.07648,0.07235 -0.101286,0.121957 -0.02481,0.04961 -0.03721,0.100769 -0.03721,0.152962 v 0.543636 c 0,0.06925 0.0021,0.130225 0.0062,0.183968 0.0052,0.05271 0.01291,0.09819 0.02274,0.136426 0.0041,0.0098 0.02067,0.02067 0.04961,0.03307 0.02894,0.0124 0.06046,0.02222 0.09508,0.02894 0.03566,0.0072 0.06046,0.01034 0.07441,0.01034 0.0083,0 0.01293,0.01447 0.01447,0.04341 0.0026,0.02894 0.0021,0.04961 -0.0021,0.06201 l -0.390674,-0.0186 z m 2.089795,0.0124 c -0.08165,0 -0.16123,-0.0078 -0.239779,-0.02274 -0.07855,-0.01654 -0.129708,-0.0248 -0.152962,-0.0248 -0.02222,0 -0.04909,0.0072 -0.08062,0.02067 -0.03204,0.0124 -0.05116,0.0186 -0.05788,0.0186 -0.0098,0 -0.0248,-0.0041 -0.04548,-0.0124 -0.02067,-0.0067 -0.03101,-0.01499 -0.03101,-0.0248 0,-0.01344 0.0067,-0.05995 0.02067,-0.138493 0.01499,-0.07855 0.02274,-0.187069 0.02274,-0.326595 v -1.498617 c 0,-0.08113 -0.0072,-0.15813 -0.02067,-0.23151 -0.0098,-0.03824 -0.07131,-0.05788 -0.183967,-0.05788 h -0.03307 c -0.0155,0 -0.02274,-0.01292 -0.02274,-0.03927 0,-0.03824 0.0072,-0.05788 0.02274,-0.05788 0.134875,-0.0124 0.241845,-0.02997 0.320393,-0.05374 0.07855,-0.02481 0.134359,-0.04858 0.167432,-0.07235 l 0.01447,-0.0124 h 0.0083 c 0.0093,0 0.01912,0.0072 0.02894,0.02067 0.0093,0.01395 0.01499,0.02635 0.01654,0.03721 -0.02636,0.0801 -0.03927,0.185519 -0.03927,0.31626 v 0.63252 c 0,0.02636 0.0031,0.03927 0.01033,0.03927 0.0026,0 0.0047,-5.16e-4 0.0062,-0.0021 0.0011,-0.001 0.0031,-0.0021 0.0062,-0.0021 0.03307,-0.02325 0.08475,-0.04806 0.15503,-0.07441 0.07028,-0.02739 0.131257,-0.04134 0.183967,-0.04134 0.153996,0 0.286288,0.03721 0.396875,0.111621 0.111622,0.07338 0.196887,0.166915 0.256316,0.28112 0.05891,0.113171 0.08888,0.229443 0.08888,0.349333 0,0.115755 -0.02377,0.226342 -0.07028,0.330729 -0.04548,0.103353 -0.107487,0.195854 -0.186035,0.276986 -0.07751,0.0801 -0.164849,0.14366 -0.262517,0.190169 -0.09819,0.04547 -0.197921,0.06821 -0.299723,0.06821 z m 0.07028,-0.152962 c 0.09095,0 0.168464,-0.02997 0.233577,-0.09095 0.06615,-0.06046 0.116272,-0.139009 0.150896,-0.235644 0.03411,-0.09767 0.05168,-0.201022 0.05168,-0.310059 0,-0.190169 -0.05064,-0.344165 -0.150894,-0.463021 -0.09922,-0.118339 -0.230995,-0.177767 -0.394809,-0.177767 -0.0677,0 -0.125574,0.0186 -0.173633,0.05581 -0.04858,0.03721 -0.07235,0.09095 -0.07235,0.16123 v 0.84336 c 0,0.07441 0.03514,0.129708 0.105419,0.165364 0.07131,0.03462 0.15503,0.05168 0.250115,0.05168 z m 1.749246,0.152962 c -0.132291,0 -0.254247,-0.03514 -0.365868,-0.10542 -0.110588,-0.07028 -0.198438,-0.163814 -0.264583,-0.28112 -0.06615,-0.116788 -0.09922,-0.248047 -0.09922,-0.392741 0,-0.167948 0.03101,-0.313159 0.09302,-0.436149 0.06305,-0.124023 0.148828,-0.219108 0.256315,-0.285254 0.108521,-0.06615 0.230477,-0.09922 0.36587,-0.09922 0.111621,0 0.209289,0.0217 0.293522,0.06408 0.08371,0.04134 0.149344,0.09457 0.196369,0.159164 0.04238,0.0677 0.07442,0.135909 0.09509,0.204639 0.02067,0.06925 0.03101,0.137459 0.03101,0.204638 0,0.04858 -0.0078,0.07803 -0.02274,0.08888 -0.01395,0.01137 -0.04134,0.01654 -0.08268,0.01654 h -0.911572 c -0.01964,0 -0.02894,0.0062 -0.02894,0.0186 0,0.100769 0.02067,0.19792 0.06201,0.291455 0.04134,0.0925 0.101286,0.168982 0.179834,0.229443 0.07958,0.05943 0.177767,0.08888 0.293522,0.08888 0.101802,0 0.186552,-0.01447 0.254249,-0.04341 0.06873,-0.02997 0.118856,-0.05788 0.150894,-0.08268 l 0.02481,-0.0186 c 0.01499,0 0.02274,0.01602 0.02274,0.04754 0,0.01654 -0.0078,0.03876 -0.02274,0.06615 -0.04857,0.0677 -0.119372,0.129191 -0.212907,0.183968 -0.09405,0.05374 -0.196371,0.08062 -0.307992,0.08062 z m -0.415478,-1.014925 h 0.704866 c 0.0124,0 0.0186,-0.01137 0.0186,-0.03514 0,-0.05374 -0.01395,-0.112138 -0.04134,-0.1757 -0.02791,-0.06304 -0.06976,-0.118856 -0.126091,-0.167432 -0.05529,-0.04806 -0.125056,-0.07235 -0.208772,-0.07235 -0.07752,0 -0.143661,0.02635 -0.198437,0.07855 -0.05529,0.05116 -0.09715,0.109554 -0.126092,0.175699 -0.02894,0.06615 -0.04341,0.123507 -0.04341,0.171566 0,0.01654 0.0067,0.02481 0.02067,0.02481 z m 1.237134,1.002523 c -0.0098,-0.0098 -0.01447,-0.02997 -0.01447,-0.06201 0,-0.02894 0.0046,-0.04341 0.01447,-0.04341 0.01912,0 0.04547,-0.0031 0.07855,-0.01034 0.03411,-0.0067 0.06615,-0.01654 0.09508,-0.02894 0.02894,-0.0124 0.04444,-0.02325 0.04754,-0.03307 0.0093,-0.03307 0.0155,-0.0708 0.0186,-0.113688 0.0041,-0.04393 0.0062,-0.08992 0.0062,-0.138493 v -0.684196 c 0,-0.09095 -0.01757,-0.155546 -0.05168,-0.194304 -0.02377,-0.03152 -0.05271,-0.05168 -0.08682,-0.05994 -0.03307,-0.0083 -0.06201,-0.01292 -0.08682,-0.01447 -0.02377,-0.001 -0.03514,-0.0047 -0.03514,-0.01034 0,-0.05788 0.0067,-0.08733 0.02067,-0.08888 0.128158,-0.01912 0.225826,-0.03566 0.293522,-0.04961 0.06718,-0.01344 0.128158,-0.02584 0.181901,-0.03721 l 0.04341,-0.0124 c 0.0093,-0.001 0.01499,0.0093 0.01654,0.03101 0.0026,0.02067 0.0026,0.03617 0,0.04547 -0.0041,0.04858 -0.0083,0.09457 -0.01239,0.138493 -0.0031,0.04289 -0.0041,0.08372 -0.0041,0.121957 v 0.746207 c 0,0.06925 0.0021,0.130225 0.0062,0.183968 0.0052,0.05271 0.01291,0.09819 0.02274,0.136426 0.0041,0.0098 0.02067,0.02067 0.04961,0.03307 0.02894,0.0124 0.05994,0.02222 0.09302,0.02894 0.03411,0.0072 0.05891,0.01034 0.07441,0.01034 0.0067,0 0.01085,0.01447 0.0124,0.04341 0.0026,0.02894 0.0021,0.04961 -0.0021,0.06201 l -0.386539,-0.0186 z m 0.357601,-1.97404 c -0.04858,0 -0.09043,-0.01757 -0.126091,-0.05374 -0.03617,-0.03721 -0.05374,-0.07958 -0.05374,-0.128157 0,-0.05064 0.01757,-0.09353 0.05374,-0.128158 0.03566,-0.03411 0.07751,-0.05168 0.126091,-0.05168 0.05064,0 0.09354,0.01757 0.128158,0.05168 0.03566,0.03462 0.05374,0.07752 0.05374,0.128158 0,0.04858 -0.01809,0.09095 -0.05374,0.128157 -0.03462,0.03617 -0.07751,0.05374 -0.128158,0.05374 z m 0.652156,1.97404 c -0.0098,-0.0098 -0.01447,-0.02997 -0.01447,-0.06201 0,-0.02894 0.0047,-0.04341 0.01447,-0.04341 0.01912,0 0.04547,-0.0031 0.07855,-0.01034 0.03411,-0.0067 0.06615,-0.01654 0.09508,-0.02894 0.02894,-0.0124 0.04444,-0.02325 0.04754,-0.03307 0.0093,-0.03307 0.0155,-0.0708 0.0186,-0.113688 0.0041,-0.04393 0.0062,-0.08992 0.0062,-0.138493 v -0.684196 c 0,-0.09095 -0.01757,-0.155546 -0.05168,-0.194304 -0.02377,-0.02894 -0.05168,-0.04806 -0.08475,-0.05788 -0.03204,-0.0093 -0.06098,-0.01499 -0.08682,-0.01654 -0.02481,-10e-4 -0.03721,-0.0047 -0.03721,-0.01034 0,-0.05788 0.0067,-0.08733 0.02067,-0.08888 0.128158,-0.01912 0.232028,-0.03617 0.312125,-0.05168 0.07958,-0.01654 0.129192,-0.02739 0.148829,-0.03307 l 0.05788,-0.01447 c 0.0093,-0.001 0.01499,0.0093 0.01654,0.03101 0.0026,0.02067 0.0026,0.03617 0,0.04547 -0.0041,0.03462 -0.0078,0.06408 -0.01033,0.08888 -0.0031,0.02377 -0.0041,0.04237 -0.0041,0.05581 0,0.0098 0.0026,0.01447 0.0083,0.01447 0.0026,0 0.0062,-0.0021 0.01033,-0.0062 0.05478,-0.05788 0.130226,-0.112654 0.22531,-0.165364 0.09612,-0.05219 0.188102,-0.07855 0.274918,-0.07855 0.16795,0 0.285771,0.06098 0.353468,0.181901 0.06718,0.11989 0.101285,0.315227 0.101285,0.584978 v 0.330729 c 0,0.06925 0.0021,0.130225 0.0062,0.183968 0.0052,0.05271 0.01293,0.09819 0.02274,0.136426 0.0052,0.0098 0.02274,0.02067 0.05168,0.03307 0.02894,0.0124 0.05994,0.02222 0.09302,0.02894 0.03411,0.0072 0.0584,0.01034 0.07235,0.01034 0.0067,0 0.01136,0.01447 0.01447,0.04341 0.0026,0.02894 0.0011,0.04961 -0.0041,0.06201 l -0.386539,-0.0186 -0.380338,0.0186 c -0.0098,-0.0098 -0.01447,-0.02997 -0.01447,-0.06201 0,-0.02894 0.0047,-0.04341 0.01447,-0.04341 0.01912,0 0.04444,-0.0031 0.07648,-0.01034 0.03152,-0.0067 0.06046,-0.01654 0.08682,-0.02894 0.02584,-0.0124 0.04031,-0.02325 0.04341,-0.03307 0.0093,-0.03307 0.0155,-0.0708 0.0186,-0.113688 0.0041,-0.04393 0.0062,-0.08992 0.0062,-0.138493 v -0.361735 c 0,-0.224276 -0.02894,-0.377238 -0.08682,-0.458887 -0.05788,-0.08268 -0.151929,-0.124023 -0.28112,-0.124023 -0.05116,0 -0.102319,0.01395 -0.152962,0.04134 -0.04961,0.0279 -0.09198,0.05994 -0.126091,0.09715 -0.03307,0.03617 -0.04961,0.06976 -0.04961,0.101286 v 0.636654 c 0,0.06925 0.0021,0.130225 0.0062,0.183968 0.0052,0.05271 0.01293,0.09819 0.02274,0.136426 0.0041,0.0098 0.02067,0.02067 0.04961,0.03307 0.02894,0.0124 0.05995,0.02222 0.09302,0.02894 0.03411,0.0072 0.05891,0.01034 0.07441,0.01034 0.0067,0 0.01085,0.01447 0.01239,0.04341 0.0026,0.02894 0.0021,0.04961 -0.0021,0.06201 l -0.386539,-0.0186 z m 2.615345,0.810286 c -0.113171,0 -0.221176,-0.01447 -0.324528,-0.04341 -0.10232,-0.02894 -0.185002,-0.0739 -0.248047,-0.134359 -0.06201,-0.05943 -0.09302,-0.133842 -0.09302,-0.223242 0,-0.148828 0.117821,-0.276469 0.353466,-0.382406 -0.06511,-0.0098 -0.125057,-0.03979 -0.179833,-0.09095 -0.05529,-0.05064 -0.08268,-0.112655 -0.08268,-0.186035 0,-0.06201 0.02687,-0.126607 0.08062,-0.194304 0.05374,-0.06718 0.114205,-0.12299 0.181901,-0.167431 -0.04858,-0.01912 -0.09457,-0.05168 -0.138492,-0.09715 -0.04444,-0.04547 -0.08062,-0.09922 -0.109555,-0.16123 -0.02894,-0.06305 -0.04341,-0.128675 -0.04341,-0.196371 0,-0.09612 0.02739,-0.182418 0.08268,-0.258382 0.05478,-0.07545 0.128673,-0.135392 0.221174,-0.179834 0.09353,-0.04547 0.198438,-0.06821 0.314193,-0.06821 0.09353,0 0.196371,0.01602 0.307992,0.04754 0.110071,0.03049 0.205155,0.04548 0.285254,0.04548 h 0.208772 c 0.01499,0.0031 0.02274,0.03307 0.02274,0.09095 0,0.03462 -0.0078,0.05168 -0.02274,0.05168 h -0.256315 c -0.0098,0 -0.01447,0.0036 -0.01447,0.01033 l 0.03721,0.08682 c 0.02584,0.06098 0.03927,0.118856 0.03927,0.173633 0,0.08682 -0.02687,0.168982 -0.08061,0.24598 -0.05271,0.07752 -0.124023,0.140043 -0.214974,0.188102 -0.08992,0.04858 -0.191719,0.07235 -0.305924,0.07235 -0.03876,0 -0.07545,-0.001 -0.109555,-0.0041 -0.03307,-0.0026 -0.06408,-0.0062 -0.09302,-0.01034 -0.04547,0.03307 -0.08217,0.06821 -0.109554,0.10542 -0.02791,0.03617 -0.04134,0.07183 -0.04134,0.107487 0,0.06098 0.03359,0.09922 0.101287,0.115755 0.06718,0.01654 0.153995,0.02481 0.260449,0.02481 0.148828,0.0031 0.275435,0.0124 0.380339,0.02894 0.105936,0.0155 0.188618,0.03617 0.248046,0.06201 0.120923,0.05788 0.181901,0.143661 0.181901,0.258382 0,0.122473 -0.03617,0.235645 -0.107487,0.338998 -0.07028,0.103353 -0.168982,0.186035 -0.295589,0.248047 -0.127125,0.06201 -0.272335,0.09353 -0.436149,0.09508 z m 0.0186,-1.494482 c 0.09353,0 0.170532,-0.03566 0.23151,-0.107487 0.06201,-0.07286 0.09302,-0.15968 0.09302,-0.260449 0,-0.111622 -0.03462,-0.205673 -0.103353,-0.283187 -0.06925,-0.077 -0.148828,-0.115756 -0.239779,-0.115756 -0.09405,0 -0.171566,0.03669 -0.233578,0.109554 -0.06201,0.07183 -0.09302,0.158647 -0.09302,0.26045 0,0.110587 0.03411,0.204122 0.103353,0.28112 0.06873,0.07751 0.149344,0.115755 0.241845,0.115755 z m 0.08682,1.362191 c 0.09612,0 0.181902,-0.0186 0.256316,-0.05581 0.07441,-0.03617 0.132291,-0.08268 0.173632,-0.14056 0.04237,-0.05788 0.06408,-0.119372 0.06408,-0.183968 0,-0.102319 -0.04909,-0.169499 -0.146762,-0.202572 -0.09664,-0.03617 -0.288871,-0.05374 -0.576708,-0.05374 -0.01964,0 -0.05271,0.01034 -0.09922,0.03101 -0.04703,0.0217 -0.09043,0.05374 -0.130225,0.09508 -0.04031,0.04237 -0.05994,0.09715 -0.05994,0.163298 0,0.06718 0.02532,0.127124 0.07648,0.179834 0.05064,0.05374 0.115755,0.09508 0.194304,0.124023 0.07855,0.02894 0.16123,0.04341 0.248046,0.04341 z m 0,0"
       style="fill:#a9a9a9;fill-opacity:1;fill-rule:nonzero;stroke:none;stroke-width:0.264583"
       aria-label="a church of interbeing"
       clip-path="none" /></g></svg>
